<svg width="16" height="16" viewBox="0 0 16 16" fill="none" xmlns="http://www.w3.org/2000/svg">
<path d="M4.4012 1.27734C4.12481 1.27734 3.90075 1.5014 3.90075 1.77779C3.90075 2.05418 4.12481 2.27823 4.4012 2.27823C4.67759 2.27823 4.90164 2.05418 4.90164 1.77779C4.90164 1.5014 4.67759 1.27734 4.4012 1.27734Z" fill="#CFE3F2"/>
<path d="M6.17898 1.27734C5.90259 1.27734 5.67853 1.5014 5.67853 1.77779C5.67853 2.05418 5.90259 2.27823 6.17898 2.27823C6.45536 2.27823 6.67942 2.05418 6.67942 1.77779C6.67942 1.5014 6.45536 1.27734 6.17898 1.27734Z" fill="#CFE3F2"/>
<path d="M7.95675 1.27734C7.68037 1.27734 7.45631 1.5014 7.45631 1.77779C7.45631 2.05418 7.68037 2.27823 7.95675 2.27823C8.23314 2.27823 8.4572 2.05418 8.4572 1.77779C8.4572 1.5014 8.23314 1.27734 7.95675 1.27734Z" fill="#CFE3F2"/>
<path d="M9.73453 1.27734C9.45814 1.27734 9.23409 1.5014 9.23409 1.77779C9.23409 2.05418 9.45814 2.27823 9.73453 2.27823C10.0109 2.27823 10.235 2.05418 10.235 1.77779C10.235 1.5014 10.0109 1.27734 9.73453 1.27734Z" fill="#CFE3F2"/>
<path d="M11.5123 1.27734C11.2359 1.27734 11.0119 1.5014 11.0119 1.77779C11.0119 2.05418 11.2359 2.27823 11.5123 2.27823C11.7887 2.27823 12.0128 2.05418 12.0128 1.77779C12.0128 1.5014 11.7887 1.27734 11.5123 1.27734Z" fill="#CFE3F2"/>
<path d="M3.51231 2.8329C3.23592 2.8329 3.01186 3.05696 3.01186 3.33334C3.01186 3.60973 3.23592 3.83379 3.51231 3.83379C3.7887 3.83379 4.01275 3.60973 4.01275 3.33334C4.01275 3.05696 3.7887 2.8329 3.51231 2.8329Z" fill="#CFE3F2"/>
<path d="M5.29009 2.8329C5.0137 2.8329 4.78964 3.05696 4.78964 3.33334C4.78964 3.60973 5.0137 3.83379 5.29009 3.83379C5.56647 3.83379 5.79053 3.60973 5.79053 3.33334C5.79053 3.05696 5.56647 2.8329 5.29009 2.8329Z" fill="#CFE3F2"/>
<path d="M12.4445 2.8329C12.1681 2.8329 11.9441 3.05696 11.9441 3.33334C11.9441 3.60973 12.1681 3.83379 12.4445 3.83379C12.7209 3.83379 12.945 3.60973 12.945 3.33334C12.945 3.05696 12.7209 2.8329 12.4445 2.8329Z" fill="#CFE3F2"/>
<path d="M2.62342 4.38845C2.34703 4.38845 2.12298 4.61251 2.12298 4.8889C2.12298 5.16529 2.34703 5.38934 2.62342 5.38934C2.89981 5.38934 3.12386 5.16529 3.12386 4.8889C3.12386 4.61251 2.89981 4.38845 2.62342 4.38845Z" fill="#CFE3F2"/>
<path d="M6.17898 4.38845C5.90259 4.38845 5.67853 4.61251 5.67853 4.8889C5.67853 5.16529 5.90259 5.38934 6.17898 5.38934C6.45536 5.38934 6.67942 5.16529 6.67942 4.8889C6.67942 4.61251 6.45536 4.38845 6.17898 4.38845Z" fill="#CFE3F2"/>
<path d="M13.3334 4.38845C13.057 4.38845 12.833 4.61251 12.833 4.8889C12.833 5.16529 13.057 5.38934 13.3334 5.38934C13.6098 5.38934 13.8339 5.16529 13.8339 4.8889C13.8339 4.61251 13.6098 4.38845 13.3334 4.38845Z" fill="#CFE3F2"/>
<path d="M1.73453 5.94401C1.45814 5.94401 1.23409 6.16807 1.23409 6.44446C1.23409 6.72084 1.45814 6.9449 1.73453 6.9449C2.01092 6.9449 2.23498 6.72084 2.23498 6.44446C2.23498 6.16807 2.01092 5.94401 1.73453 5.94401Z" fill="#CFE3F2"/>
<path d="M7.06786 5.94401C6.79148 5.94401 6.56742 6.16807 6.56742 6.44446C6.56742 6.72084 6.79148 6.9449 7.06786 6.9449C7.34425 6.9449 7.56831 6.72084 7.56831 6.44446C7.56831 6.16807 7.34425 5.94401 7.06786 5.94401Z" fill="#CFE3F2"/>
<path d="M14.2223 5.94401C13.9459 5.94401 13.7219 6.16807 13.7219 6.44446C13.7219 6.72084 13.9459 6.9449 14.2223 6.9449C14.4987 6.9449 14.7227 6.72084 14.7227 6.44446C14.7227 6.16807 14.4987 5.94401 14.2223 5.94401Z" fill="#CFE3F2"/>
<path d="M1.32347 7.75172C1.18634 7.51175 0.88064 7.42838 0.640668 7.5655C0.400696 7.70263 0.317324 8.00833 0.45445 8.2483L3.75408 14.0226C3.81217 14.1243 3.88203 14.2169 3.96137 14.2989C4.14047 14.4842 4.36789 14.6162 4.61761 14.6798C4.72825 14.7079 4.84326 14.7227 4.96036 14.7227H11.5556C11.832 14.7227 12.0561 14.4986 12.0561 14.2222C12.0561 13.9458 11.832 13.7218 11.5556 13.7218H5.30687L6.51271 11.6116H13.4445C13.7209 11.6116 13.945 11.3875 13.945 11.1111C13.945 10.8347 13.7209 10.6107 13.4445 10.6107H7.08465L8.17865 8.69618C8.24781 8.57515 8.37652 8.50045 8.51591 8.50045H15.2223C15.4987 8.50045 15.7227 8.2764 15.7227 8.00001C15.7227 7.72362 15.4987 7.49957 15.2223 7.49957H8.51591C8.01734 7.49957 7.55699 7.76672 7.30963 8.1996L4.44451 13.2136L1.32347 7.75172Z" fill="#CFE3F2"/>
</svg>
