<?xml version="1.0" encoding="UTF-8" standalone="no"?>
<svg
   version="1.0"
   width="70.000000pt"
   height="70.000000pt"
   viewBox="0 0 70.000000 70.000000"
   preserveAspectRatio="xMidYMid meet"
   id="svg16"
   sodipodi:docname="logo2.svg"
   inkscape:version="1.1 (c68e22c387, 2021-05-23)"
   xmlns:inkscape="http://www.inkscape.org/namespaces/inkscape"
   xmlns:sodipodi="http://sodipodi.sourceforge.net/DTD/sodipodi-0.dtd"
   xmlns="http://www.w3.org/2000/svg"
   xmlns:svg="http://www.w3.org/2000/svg">
  <defs
     id="defs20" />
  <sodipodi:namedview
     id="namedview18"
     pagecolor="#ffffff"
     bordercolor="#666666"
     borderopacity="1.0"
     inkscape:pageshadow="2"
     inkscape:pageopacity="0.0"
     inkscape:pagecheckerboard="0"
     inkscape:document-units="pt"
     showgrid="false"
     inkscape:zoom="8.0464286"
     inkscape:cx="46.604527"
     inkscape:cy="46.728806"
     inkscape:window-width="1920"
     inkscape:window-height="1025"
     inkscape:window-x="1920"
     inkscape:window-y="27"
     inkscape:window-maximized="1"
     inkscape:current-layer="svg16" />
  <metadata
     id="metadata2">
Created by potrace 1.16, written by Peter Selinger 2001-2019
</metadata>
  <g
     transform="translate(0.000000,70.000000) scale(0.100000,-0.100000)"
     fill="#000000"
     stroke="none"
     id="g14">
    <path
       d="M0 350 l0 -350 350 0 350 0 0 350 0 350 -350 0 -350 0 0 -350z m456 158 l94 -53 0 -112 0 -112 -100 -56 -100 -57 -100 57 -100 56 0 112 0 112 93 52 c50 29 98 52 105 53 8 0 56 -24 108 -52z"
       id="path4" />
    <path
       d="M276 385 c-36 -63 -66 -117 -66 -120 0 -3 63 -5 140 -5 77 0 140 2 140 5 0 13 -132 235 -140 235 -5 0 -38 -52 -74 -115z"
       id="path6" />
    <path
       d="M233 463 l-43 -24 0 -62 c0 -36 4 -57 9 -51 23 24 99 164 88 163 -7 -1 -31 -12 -54 -26z"
       id="path8" />
    <path
       d="M414 474 c9 -24 86 -154 91 -154 3 0 5 27 5 59 l0 59 -46 26 c-54 30 -58 31 -50 10z"
       id="path10" />
    <path
       d="M256 211 c5 -4 28 -19 51 -31 l43 -24 43 24 c69 38 66 40 -43 40 -58 0 -100 -4 -94 -9z"
       id="path12" />
  </g>
</svg>
